<svg width="15" height="13" viewBox="0 0 15 13" fill="none" xmlns="http://www.w3.org/2000/svg">
<path d="M14.824 3.80021C14.824 3.79016 14.824 3.77006 14.824 3.76002C14.8137 3.70977 14.8137 3.64947 14.793 3.59922C14.4307 2.01141 13.5094 0.835622 12.1947 0.303C10.88 -0.229621 9.37904 -0.0587802 7.9505 0.805474C6.91533 1.42854 5.99403 2.39329 5.32118 3.54898C4.68972 3.03645 4.18249 2.39329 3.84088 1.66973C3.6028 1.16725 3.10591 0.835622 2.53657 0.805474C1.96723 0.775325 1.43929 1.03661 1.13909 1.50894C0.404125 2.63448 0.0107607 3.94091 0.000408974 5.28753C-0.0202944 7.23713 0.74573 9.07618 2.14321 10.463C3.54069 11.8498 5.42469 12.6236 7.43292 12.6337C7.45362 12.6337 7.47433 12.6337 7.49503 12.6337C8.48879 12.6337 9.46185 12.4427 10.3728 12.081C11.2734 11.7192 12.0808 11.1966 12.7744 10.5233C13.468 9.84999 14.0166 9.07618 14.3996 8.20188C14.793 7.29743 15 6.34273 15 5.35788C14.9896 4.82526 14.9275 4.31274 14.824 3.80021ZM12.6812 7.48837C12.3914 8.14158 11.9877 8.7345 11.4597 9.23697C10.3935 10.262 8.98567 10.8248 7.49503 10.8248C7.48468 10.8248 7.48468 10.8248 7.47433 10.8248C6.80147 10.4932 6.31494 9.79974 6.1079 8.86514C5.92157 8.04109 5.96298 7.09644 6.22177 6.15179C7.09131 6.48342 8.02296 6.65426 8.94426 6.65426C10.0208 6.65426 11.0664 6.43317 12.0394 6.01109C12.4224 5.84025 12.7847 5.64931 13.1263 5.41818C13.116 6.13169 12.9711 6.8251 12.6812 7.48837ZM4.28601 9.24702C4.34812 9.50831 4.42058 9.75954 4.51374 10.0007C4.14108 9.76959 3.78913 9.49826 3.47857 9.19677C2.4227 8.15163 1.85336 6.7648 1.86371 5.29758C1.87406 4.48358 2.06039 3.67962 2.43305 2.95606C2.96099 3.86051 3.68561 4.64437 4.55515 5.25738C4.11003 6.61406 4.01686 8.01094 4.28601 9.24702ZM11.2734 4.35293C10.5384 4.67452 9.76205 4.83531 8.94426 4.83531C8.2507 4.83531 7.56749 4.71471 6.91533 4.47353C7.44327 3.56908 8.13683 2.82542 8.93391 2.34304C9.50326 1.99131 10.0933 1.81042 10.6316 1.81042C10.9214 1.81042 11.2113 1.86067 11.4701 1.97121C11.8013 2.1119 12.1015 2.33299 12.3396 2.62443C12.5156 2.83546 12.6605 3.0867 12.7744 3.36809C12.3293 3.78011 11.8324 4.1017 11.2734 4.35293Z" fill="#8E3FF1"/>
</svg>
