<svg width="40" height="40" viewBox="0 0 40 40" fill="none" xmlns="http://www.w3.org/2000/svg">
<path d="M25.0002 13.95V12.35C25.0002 7.38331 21.5502 5.48331 17.3502 8.11664L12.4835 11.1666C11.9502 11.4833 11.3335 11.6666 10.7168 11.6666H8.3335C5.00016 11.6666 3.3335 13.3333 3.3335 16.6666V23.3333C3.3335 26.6666 5.00016 28.3333 8.3335 28.3333H11.6668" stroke="#F2F2F2" stroke-width="2" stroke-linecap="round" stroke-linejoin="round"/>
<path d="M17.3501 31.8835C21.5501 34.5168 25.0001 32.6002 25.0001 27.6502V21.5835" stroke="#F2F2F2" stroke-width="2" stroke-linecap="round" stroke-linejoin="round"/>
<path d="M31.35 15.6997C32.85 19.283 32.4 23.4663 30 26.6663" stroke="#F2F2F2" stroke-width="2" stroke-linecap="round" stroke-linejoin="round"/>
<path d="M35.2498 13C37.6998 18.8166 36.9665 25.6166 33.0498 30.8332" stroke="#F2F2F2" stroke-width="2" stroke-linecap="round" stroke-linejoin="round"/>
<path d="M36.6668 3.3335L3.3335 36.6668" stroke="#F2F2F2" stroke-width="2" stroke-linecap="round" stroke-linejoin="round"/>
</svg>
